<svg data-v-423bf9ae="" xmlns="http://www.w3.org/2000/svg" viewBox="0 0 622 91" class="iconLeft"><!----><!----><!----><g data-v-423bf9ae="" id="57fc4664-f226-45f1-8916-8cb731ffd5e7" fill="black" transform="matrix(4.819579601287842,0,0,4.819579601287842,115.63191986083984,15.26601791381836)"><path d="M1.08 10.26C0.70 11.35 0.49 11.94-0.67 11.94L-0.67 12.17L2.91 12.17L2.91 11.94L2.45 11.94C1.53 11.94 1.19 11.61 1.19 11.07C1.19 10.86 1.23 10.63 1.33 10.36L2.18 7.94C3.61 8.50 4.51 10.04 5.05 11.31L5.36 12.17L8.83 12.17L8.83 11.94L8.30 11.94L4.90 2.34C3.74 2.34 3.57 3.11 3.44 3.49L2.02 7.60C1.69 7.50 1.36 7.45 0.99 7.45C-0.46 7.45-1.11 8.29-1.11 9.02C-1.11 9.69-0.67 10.28 0.08 10.28C0.69 10.28 1.18 9.86 1.18 9.23C1.18 8.67 0.83 8.23 0.28 8.23C-0.04 8.23-0.28 8.39-0.41 8.57C-0.49 8.69-0.50 8.78-0.62 8.78C-0.69 8.78-0.74 8.72-0.74 8.65C-0.74 8.58-0.71 8.53-0.66 8.44C-0.53 8.26-0.17 7.71 1.01 7.71C1.33 7.71 1.64 7.77 1.92 7.85ZM2.27 7.69L3.02 5.54L4.44 9.56C3.92 8.76 3.21 8.04 2.27 7.69ZM9.91 11.94L9.02 11.94L9.02 12.17L13.65 12.17L13.65 11.94L12.77 11.94L12.77 8.02L14.49 8.02C17.14 8.02 17.93 6.66 17.93 5.08C17.93 2.95 16.31 2.23 13.17 2.23C11.41 2.23 9.83 2.81 9.83 4.30C9.83 5.15 10.49 5.84 11.34 5.84C12.11 5.84 12.73 5.29 12.73 4.51C12.73 3.78 12.26 3.25 11.49 3.25C10.81 3.25 10.53 3.67 10.46 3.91C10.44 3.95 10.42 4.07 10.29 4.07C10.21 4.07 10.16 4.00 10.16 3.95C10.16 3.91 10.18 3.85 10.19 3.79C10.42 3.05 11.41 2.58 12.67 2.58C13.89 2.58 14.92 3.43 14.92 5.08C14.92 6.99 14.67 7.76 12.92 7.76L12.77 7.76L12.77 5.73C12.61 5.96 12.03 6.38 11.30 6.38C10.85 6.38 10.30 6.22 9.91 5.80ZM18.07 3.92C18.38 3.98 18.68 4.00 18.97 4.00L18.97 11.94L17.93 11.94L17.93 12.17L23.03 12.17L23.03 11.94L21.83 11.94L21.83 3.12C22.12 2.79 22.29 2.34 22.29 1.75C22.29 0.74 21.53 0 20.44 0C19.31 0 18.70 0.87 18.70 1.68C18.70 2.39 19.22 3.15 20.19 3.15C20.96 3.15 21.64 2.67 21.64 1.72C21.64 1.05 21.08 0.55 20.43 0.55C20.19 0.55 19.99 0.64 19.94 0.67C19.92 0.67 19.84 0.74 19.77 0.74C19.70 0.74 19.66 0.67 19.66 0.62C19.66 0.57 19.67 0.53 19.70 0.50C19.81 0.39 20.13 0.27 20.44 0.27C21.35 0.27 22.02 0.90 22.02 1.79C22.02 3.16 20.87 3.72 19.22 3.72C18.86 3.72 18.47 3.71 18.07 3.65ZM31.91 11.94L31.01 11.94L31.01 7.53L31.57 7.53C32.68 7.53 33.14 8.05 33.14 9.25L33.36 9.25L33.36 5.59L33.14 5.59C33.14 6.79 32.68 7.31 31.57 7.31L31.01 7.31L31.01 2.94C32.54 2.70 32.93 2.49 33.92 2.49C34.82 2.49 35.25 3.15 35.25 3.49C35.25 3.56 35.21 3.63 35.13 3.63C35.01 3.63 35 3.50 34.97 3.43C34.93 3.33 34.73 2.83 33.94 2.83C33.22 2.83 32.76 3.44 32.76 4.09C32.76 4.86 33.40 5.39 34.09 5.39C34.93 5.39 35.59 4.70 35.59 3.82C35.59 2.77 34.78 2.23 33.91 2.23C32.56 2.23 31.63 2.74 29.82 2.74C28.99 2.74 28.18 2.69 27.30 2.51L27.24 2.73C27.24 2.73 27.59 2.81 28.15 2.90L28.15 11.94L27.26 11.94L27.26 12.17L31.91 12.17ZM38.99 12.43C41.19 12.43 42.69 11.03 42.69 8.95C42.69 6.86 41.19 5.46 38.99 5.46C36.79 5.46 35.29 6.86 35.29 8.95C35.29 11.03 36.79 12.43 38.99 12.43ZM39.86 8.95C39.86 11.35 39.65 12.18 38.99 12.18C38.33 12.18 38.12 11.35 38.12 8.95C38.12 6.54 38.33 5.71 38.99 5.71C39.65 5.71 39.86 6.54 39.86 8.95ZM51.02 11.94L51.02 5.46C50.08 5.66 49.24 5.73 48.27 5.73L47.43 5.73L47.43 5.96L48.43 5.96L48.43 8.48C48.43 9.91 48.15 11.63 47.43 11.63C46.80 11.63 46.75 10.61 46.75 8.97L46.75 5.46C45.81 5.66 44.97 5.73 44.00 5.73L43.16 5.73L43.16 5.95L44.16 5.95L44.16 9.56C44.16 11.26 44.65 12.45 46.34 12.45C47.32 12.45 47.94 11.98 48.30 11.07L48.37 11.07L48.37 12.17L51.88 12.17L51.88 11.94ZM53.16 5.95L53.16 11.94L52.29 11.94L52.29 12.17L55.75 12.17L55.75 9.56C55.75 8.13 56.03 6.22 56.74 6.22C57.37 6.22 57.43 7.29 57.43 8.93L57.43 11.94L56.56 11.94L56.56 12.17L60.89 12.17L60.89 11.94L60.02 11.94L60.02 8.34C60.02 6.65 59.53 5.46 57.83 5.46C56.85 5.46 56.24 5.92 55.87 6.83L55.80 6.83L55.80 5.46C54.87 5.66 53.97 5.73 53.00 5.73L52.16 5.73L52.16 5.95ZM68.71 2.23C67.77 2.42 66.88 2.49 65.91 2.49L65.07 2.49L65.07 2.72L66.07 2.72L66.07 6.45L66.00 6.45C65.67 5.80 65.10 5.46 64.23 5.46C62.22 5.46 61.50 6.93 61.50 8.95C61.50 10.82 62.30 12.43 64.04 12.43C65.02 12.43 65.63 12.11 66.00 11.20L66.07 11.20L66.07 12.17L69.58 12.17L69.58 11.94L68.71 11.94ZM66.12 8.95C66.12 10.22 65.79 11.80 65.06 11.80C64.43 11.80 64.33 10.53 64.33 8.95C64.33 6.96 64.51 5.98 65.06 5.98C65.58 5.98 66.12 6.82 66.12 8.57ZM74.35 10.05C74.35 10.75 74.10 11.73 73.49 11.73C73.07 11.73 72.70 11.31 72.70 10.30C72.70 9.10 73.47 8.71 74.35 8.75ZM74.62 10.84C74.69 11.65 75.25 12.43 76.24 12.43C77.53 12.43 78.04 11.52 78.19 10.26L77.94 10.23C77.85 11.00 77.62 11.63 77.25 11.63C77.06 11.63 77 11.38 77 11.06L77 8.68C77 6.48 76.30 5.46 73.28 5.46C71.54 5.46 70.49 6.13 70.49 7.21C70.49 7.84 70.97 8.39 71.74 8.39C72.27 8.39 72.80 7.95 72.80 7.32C72.80 6.82 72.46 6.31 71.90 6.31C71.32 6.31 71.13 6.82 71.13 6.82C71.09 6.90 71.08 7.03 70.95 7.03C70.90 7.03 70.83 6.99 70.83 6.90C70.83 6.33 71.76 5.74 72.84 5.74C74.33 5.74 74.35 7.01 74.35 8.04L74.35 8.50C73.07 8.50 70.06 8.62 70.06 10.58C70.06 11.98 71.25 12.43 72.41 12.43C73.86 12.43 74.31 11.70 74.54 10.84ZM80.88 12.43C82.31 12.43 82.78 11.52 82.94 10.26L82.68 10.23C82.60 11.00 82.36 11.63 82.00 11.63C81.80 11.63 81.75 11.38 81.75 11.06L81.75 5.95L83.05 5.95L83.05 5.73L81.75 5.73L81.75 3.32L81.56 3.32C81.14 5.17 79.17 5.73 78.47 5.73L78.37 5.73L78.37 5.95L79.10 5.95L79.10 10.39C79.10 11.83 79.86 12.43 80.88 12.43ZM84.24 5.95L84.24 11.94L83.37 11.94L83.37 12.17L87.75 12.17L87.75 11.94L86.88 11.94L86.88 5.46C85.95 5.66 85.05 5.73 84.08 5.73L83.24 5.73L83.24 5.95ZM84.24 3.56C84.24 4.28 84.83 4.87 85.55 4.87C86.31 4.87 86.88 4.28 86.88 3.56C86.88 2.80 86.31 2.23 85.55 2.23C84.83 2.23 84.24 2.80 84.24 3.56ZM92.01 12.43C94.21 12.43 95.70 11.03 95.70 8.95C95.70 6.86 94.21 5.46 92.01 5.46C89.81 5.46 88.31 6.86 88.31 8.95C88.31 11.03 89.81 12.43 92.01 12.43ZM92.88 8.95C92.88 11.35 92.67 12.18 92.01 12.18C91.35 12.18 91.14 11.35 91.14 8.95C91.14 6.54 91.35 5.71 92.01 5.71C92.67 5.71 92.88 6.54 92.88 8.95ZM97.26 5.95L97.26 11.94L96.39 11.94L96.39 12.17L99.85 12.17L99.85 9.56C99.85 8.13 100.13 6.22 100.84 6.22C101.47 6.22 101.53 7.29 101.53 8.93L101.53 11.94L100.66 11.94L100.66 12.17L104.99 12.17L104.99 11.94L104.12 11.94L104.12 8.34C104.12 6.65 103.63 5.46 101.93 5.46C100.95 5.46 100.34 5.92 99.97 6.83L99.90 6.83L99.90 5.46C98.97 5.66 98.07 5.73 97.10 5.73L96.26 5.73L96.26 5.95Z"></path></g><!----><g data-v-423bf9ae="" id="09633377-6d4e-47b2-96ba-41e4faac53fe" transform="matrix(1.0029513835906982,0,0,1.0029513835906982,0.8574509620666504,0.7347671985626221)" stroke="none" fill="black"><path d="M-.018 4.348l1.365-.522C9.805.951 18.861 6.776 23.192 13.907 21.789 7.288 15.662 1.557 9.028.202 5.352-.682 2.488 2.168-.018 4.348m57.178 3.9c2.932 4.71 1.494 6.586-2.659 9.206-3.088 1.879-4.559 2.774-4.589 3.054-.209.65.109 1.504 2.224 5.974 5.275 10.658 7.793 17.53 13.873 24.79 5.916 7.064 13.452 5.206 10.767-1.84-.794-2.085.59-5.775 2.685-3.204 1.603 1.642 4.083 9.03 4.208 12.878.336 4.324-1.215 9.882-6.01 10.983-3.088.645-6.231-.87-8.779-2.508-12.579-11.142-17.825-27.786-26.266-41.848-1.582-.862-3.108 1.184-4.54 1.715-1.494 1.074-3.434 1.714-4.521 3.249 6.957 15.76 17.197 30.65 21.374 47.727.273 3.759-.385 5.991-2.559 7.052-7.273 3.136-11.143-7.299-10.363-13.059-1.004-12.51-8.645-23.155-14.086-34.081-1.072-4.27-4.601-2.85-5.952.482-1.785 3.337.373 7.707-1.73 10.733-.882.537-1.672.233-2.516-.824-2.782-6.3-4.007-13.79-1.998-20.503 1.601-3.329 2.515-4.146 21.158-15.226 3.37-2.051 6.737-4.108 10.118-6.14 1.544-.928 3.125-1.993 4.772-2.749 2.608-.948 4.239 2.346 5.389 4.139m-32.983 6.586C-3.581 18.556-7.71 53.83 13.205 72.303c18.689 16.508 53.664 25.876 58.231 8.072 16.076 1.395 21.936-22.226 16.699-44.319C84.676 21.359 75.888 6.271 60.878 1.22c-13.48-4.657-28.886 2.128-36.701 13.614"></path></g><!----></svg>