<svg data-v-fde0c5aa="" xmlns="http://www.w3.org/2000/svg" viewBox="0 0 300 300" class="icon"><!----><defs data-v-fde0c5aa=""><!----></defs><rect data-v-fde0c5aa="" fill="#FFFFFF" x="0" y="0" width="300px" height="300px" class="logo-background-square"></rect><!----><defs data-v-fde0c5aa=""><linearGradient data-v-fde0c5aa="" gradientTransform="rotate(25)" id="52a4bb55-e48c-46a9-bb82-ea95dd35105c" x1="0%" y1="0%" x2="100%" y2="0%"><stop data-v-fde0c5aa="" offset="0%" stop-color="#C13104" stop-opacity="1"></stop><stop data-v-fde0c5aa="" offset="100%" stop-color="#6AAD00" stop-opacity="1"></stop></linearGradient></defs><g data-v-fde0c5aa="" id="e54fa1f1-8579-4750-b5bd-f0d168d3318e" fill="url(#52a4bb55-e48c-46a9-bb82-ea95dd35105c)" stroke="none" transform="matrix(2.437251091003418,0,0,2.437251091003418,40.347498701748314,40.647394841613306)"><path d="M-.018 4.348l1.365-.522C9.805.951 18.861 6.776 23.192 13.907 21.789 7.288 15.662 1.557 9.028.202 5.352-.682 2.488 2.168-.018 4.348m57.178 3.9c2.932 4.71 1.494 6.586-2.659 9.206-3.088 1.879-4.559 2.774-4.589 3.054-.209.65.109 1.504 2.224 5.974 5.275 10.658 7.793 17.53 13.873 24.79 5.916 7.064 13.452 5.206 10.767-1.84-.794-2.085.59-5.775 2.685-3.204 1.603 1.642 4.083 9.03 4.208 12.878.336 4.324-1.215 9.882-6.01 10.983-3.088.645-6.231-.87-8.779-2.508-12.579-11.142-17.825-27.786-26.266-41.848-1.582-.862-3.108 1.184-4.54 1.715-1.494 1.074-3.434 1.714-4.521 3.249 6.957 15.76 17.197 30.65 21.374 47.727.273 3.759-.385 5.991-2.559 7.052-7.273 3.136-11.143-7.299-10.363-13.059-1.004-12.51-8.645-23.155-14.086-34.081-1.072-4.27-4.601-2.85-5.952.482-1.785 3.337.373 7.707-1.73 10.733-.882.537-1.672.233-2.516-.824-2.782-6.3-4.007-13.79-1.998-20.503 1.601-3.329 2.515-4.146 21.158-15.226 3.37-2.051 6.737-4.108 10.118-6.14 1.544-.928 3.125-1.993 4.772-2.749 2.608-.948 4.239 2.346 5.389 4.139m-32.983 6.586C-3.581 18.556-7.71 53.83 13.205 72.303c18.689 16.508 53.664 25.876 58.231 8.072 16.076 1.395 21.936-22.226 16.699-44.319C84.676 21.359 75.888 6.271 60.878 1.22c-13.48-4.657-28.886 2.128-36.701 13.614"></path></g><!----></svg>