<svg data-v-fde0c5aa="" xmlns="http://www.w3.org/2000/svg" viewBox="0 0 300 300" class="iconLeft"><!----><defs data-v-fde0c5aa=""><!----></defs><rect data-v-fde0c5aa="" fill="#FFFFFF" x="0" y="0" width="300px" height="300px" class="logo-background-square"></rect><defs data-v-fde0c5aa=""><!----></defs><g data-v-fde0c5aa="" id="8c1bd042-4e01-49a8-8479-b493009e7357" fill="#6E1E00" transform="matrix(1.8174750804901123,0,0,1.8174750804901123,81.30528436418354,140.6641417933612)"><path d="M8.54 9.03C8.54 9.03 8.41 8.67 4.98 0.43L4.75 0.43L2.32 6.82C0.95 10.14 0.60 10.02 0.24 10.05L0.24 10.29L3.68 10.29L3.68 10.05C1.47 10.16 2.34 7.53 2.34 7.53L5.66 7.53L6.08 8.55C6.08 8.55 6.80 10.05 5.71 10.05L5.71 10.29L9.72 10.29L9.72 10.05C9.35 10.02 9.02 10.15 8.54 9.03ZM2.38 7.29L3.91 3.21L5.57 7.29ZM13.80 6.09C16.59 6.09 18.56 5.60 18.56 3.26C18.56 0.92 16.59 0.43 13.80 0.43L10.26 0.43L10.26 0.67C10.88 0.67 11.27 1.41 11.27 2.28L11.27 8.37C11.27 9.32 10.93 10.05 10.35 10.05L10.35 10.29L14.95 10.29L14.95 10.05C14.35 10.05 13.30 9.95 13.30 8.37L13.30 6.09ZM13.30 0.67L13.80 0.67C15.18 0.67 16.27 0.77 16.27 3.26C16.27 5.74 15.18 5.85 13.80 5.85L13.30 5.85ZM19.57 0.43L19.57 0.67C20.19 0.67 20.76 1.05 20.76 1.92L20.76 8.60C20.76 9.55 20.17 10.05 19.57 10.05L19.57 10.29L23.98 10.29L23.98 10.05C23.39 10.05 22.79 9.55 22.79 8.60L22.79 1.92C22.79 1.05 23.38 0.67 23.98 0.67L23.98 0.43ZM28.55 0.43L28.55 0.67C29.16 0.67 29.36 1.50 29.36 2.37L29.36 8.37C29.36 9.32 29.15 10.05 28.55 10.05L28.55 10.29L32.59 10.29L32.59 10.05C31.99 10.05 31.39 9.95 31.39 8.37L31.39 5.45L31.88 5.45C31.88 5.45 34.03 5.39 34.29 6.89L34.52 6.89L34.52 3.74L34.29 3.74C34.03 5.24 31.88 5.18 31.88 5.18L31.39 5.18L31.39 0.67L31.88 0.67C31.88 0.67 35.67 0.55 36.16 3.09L36.40 3.09L36.40 0.43ZM39.49 3.70C37.37 3.70 36.16 5.21 36.16 7.06C36.16 8.89 37.37 10.42 39.49 10.42C41.64 10.42 42.83 8.89 42.83 7.06C42.83 5.21 41.64 3.70 39.49 3.70ZM39.49 10.18C38.49 10.18 38.22 9.59 38.22 7.06C38.22 4.52 38.49 3.93 39.49 3.93C40.50 3.93 40.75 4.52 40.75 7.06C40.75 9.59 40.50 10.18 39.49 10.18ZM50.27 9.00L50.27 3.70L47.87 3.96L47.87 4.20C48.58 4.28 48.52 4.47 48.52 5.32L48.52 8.48C48.23 9.04 47.70 9.39 47.31 9.39C46.49 9.39 46.13 9.02 46.13 8.23L46.13 3.70L43.61 3.96L43.61 4.20C44.42 4.31 44.39 4.44 44.39 5.28L44.39 8.27C44.39 9.95 45.05 10.42 46.16 10.42C47.03 10.42 48.19 9.70 48.52 8.90L48.52 10.14C48.52 10.14 48.54 10.46 48.92 10.40L50.99 10.04L50.99 9.80C50.40 9.73 50.27 9.67 50.27 9.00ZM57.89 8.58L57.89 5.82C57.89 4.13 57.22 3.70 56.13 3.70C55.24 3.70 54.14 4.34 53.82 5.19L53.82 3.70L51.37 4.26L51.37 4.49C51.94 4.80 52.07 4.96 52.07 5.45L52.07 8.61C52.07 9.32 52.05 9.90 51.52 10.05L51.52 10.29L54.39 10.29L54.39 10.05C53.90 9.91 53.82 9.38 53.82 8.61L53.82 5.85C53.82 5.29 54.46 4.70 55.01 4.70C55.71 4.70 56.14 5.19 56.14 5.87L56.14 8.58C56.14 9.30 56.11 9.90 55.58 10.05L55.58 10.29L58.46 10.29L58.46 10.05C57.96 9.93 57.89 9.35 57.89 8.58ZM64.36 8.25C64.36 9.23 63.77 9.93 62.82 9.93C61.68 9.93 61.22 9.09 61.22 6.83C61.22 4.70 61.67 3.93 62.69 3.93C63.49 3.93 64.36 4.51 64.36 6.27ZM66.09 8.93L66.09-0.15L63.64 0.36L63.64 0.60C64.22 0.81 64.36 0.95 64.36 1.44L64.36 4.12C63.91 3.85 63.32 3.70 62.68 3.70C60.72 3.70 59.23 4.70 59.23 6.96C59.23 9.17 60.63 10.42 62.22 10.42C62.87 10.42 63.91 10.11 64.36 9.28L64.36 10.15C64.36 10.15 64.36 10.46 64.75 10.40L66.81 10.09L66.81 9.86C66.23 9.79 66.09 9.62 66.09 8.93ZM71.22 8.85C71.09 9.18 70.77 9.56 70.29 9.56C69.38 9.56 69.38 8.64 69.38 8.64C69.38 7.92 69.85 7.27 71.22 6.96C71.22 6.96 71.22 8.82 71.22 8.85ZM73.65 9.56C72.97 9.56 72.98 8.58 72.98 8.58L72.98 6.50C72.98 4.84 72.48 3.70 70.64 3.70C70.64 3.70 69.92 3.64 69.29 3.98C68.52 4.38 68.33 4.76 68.19 5.00C68.05 5.24 68.07 5.57 68.24 5.84C68.49 6.20 68.98 6.29 69.34 6.05C69.71 5.80 69.80 5.31 69.55 4.94C69.43 4.76 69.24 4.66 69.03 4.63C68.94 4.62 68.99 4.38 69.44 4.16C70.41 3.65 71.22 4.38 71.22 5.84L71.22 6.71C68.77 7.32 67.59 7.46 67.59 8.99C67.59 10.42 69.20 10.42 69.20 10.42C70.20 10.42 71.02 9.90 71.23 9.28C71.39 10.42 72.63 10.42 72.63 10.42C73.51 10.42 74.16 9.87 74.27 9.42L74.03 9.32C73.95 9.56 73.65 9.56 73.65 9.56ZM78.16 9.42C77.46 9.42 77.13 9.02 77.13 8.23L77.13 4.06L78.74 4.06L78.79 3.82L77.13 3.82L77.13 1.65L75.38 1.95L75.38 3.82L74.63 3.82L74.68 4.06L75.38 4.06L75.38 8.27C75.38 9.97 76.03 10.42 77.14 10.42C78.08 10.42 78.93 9.72 79.21 9.06L79.00 8.93C78.88 9.14 78.57 9.42 78.16 9.42ZM82.15 1.62C82.15 1.09 81.72 0.67 81.19 0.67C80.65 0.67 80.23 1.09 80.23 1.62C80.23 2.16 80.65 2.58 81.19 2.58C81.72 2.58 82.15 2.16 82.15 1.62ZM82.19 8.58L82.19 3.70L79.74 4.26L79.74 4.49C80.32 4.80 80.46 5.00 80.46 5.47L80.46 8.58C80.46 9.30 80.43 9.88 79.90 10.05L79.90 10.29L82.77 10.29L82.77 10.05C82.26 9.91 82.19 9.37 82.19 8.58ZM87.21 3.70C85.08 3.70 83.87 5.21 83.87 7.06C83.87 8.89 85.08 10.42 87.21 10.42C89.35 10.42 90.54 8.89 90.54 7.06C90.54 5.21 89.35 3.70 87.21 3.70ZM87.21 10.18C86.20 10.18 85.93 9.59 85.93 7.06C85.93 4.52 86.20 3.93 87.21 3.93C88.21 3.93 88.47 4.52 88.47 7.06C88.47 9.59 88.21 10.18 87.21 10.18ZM97.75 8.58L97.75 5.82C97.75 4.13 97.08 3.70 95.98 3.70C95.10 3.70 94.00 4.34 93.67 5.19L93.67 3.70L91.22 4.26L91.22 4.49C91.80 4.80 91.92 4.96 91.92 5.45L91.92 8.61C91.92 9.32 91.91 9.90 91.38 10.05L91.38 10.29L94.25 10.29L94.25 10.05C93.76 9.91 93.67 9.38 93.67 8.61L93.67 5.85C93.67 5.29 94.32 4.70 94.86 4.70C95.56 4.70 96.00 5.19 96.00 5.87L96.00 8.58C96.00 9.30 95.97 9.90 95.44 10.05L95.44 10.29L98.32 10.29L98.32 10.05C97.82 9.93 97.75 9.35 97.75 8.58Z"></path></g><defs data-v-fde0c5aa=""><linearGradient data-v-fde0c5aa="" gradientTransform="rotate(25)" id="b8bfbd6d-8781-469d-8de9-ab7cde2c71ae" x1="0%" y1="0%" x2="100%" y2="0%"><stop data-v-fde0c5aa="" offset="0%" stop-color="#C13104" stop-opacity="1"></stop><stop data-v-fde0c5aa="" offset="100%" stop-color="#6AAD00" stop-opacity="1"></stop></linearGradient></defs><g data-v-fde0c5aa="" id="22b21d47-2310-4735-8608-7d62f541a8b7" stroke="none" fill="url(#b8bfbd6d-8781-469d-8de9-ab7cde2c71ae)" transform="matrix(0.31924575567245483,0,0,0.31924575567245483,40.00623526895048,135.6763401669483)"><path d="M-.018 4.348l1.365-.522C9.805.951 18.861 6.776 23.192 13.907 21.789 7.288 15.662 1.557 9.028.202 5.352-.682 2.488 2.168-.018 4.348m57.178 3.9c2.932 4.71 1.494 6.586-2.659 9.206-3.088 1.879-4.559 2.774-4.589 3.054-.209.65.109 1.504 2.224 5.974 5.275 10.658 7.793 17.53 13.873 24.79 5.916 7.064 13.452 5.206 10.767-1.84-.794-2.085.59-5.775 2.685-3.204 1.603 1.642 4.083 9.03 4.208 12.878.336 4.324-1.215 9.882-6.01 10.983-3.088.645-6.231-.87-8.779-2.508-12.579-11.142-17.825-27.786-26.266-41.848-1.582-.862-3.108 1.184-4.54 1.715-1.494 1.074-3.434 1.714-4.521 3.249 6.957 15.76 17.197 30.65 21.374 47.727.273 3.759-.385 5.991-2.559 7.052-7.273 3.136-11.143-7.299-10.363-13.059-1.004-12.51-8.645-23.155-14.086-34.081-1.072-4.27-4.601-2.85-5.952.482-1.785 3.337.373 7.707-1.73 10.733-.882.537-1.672.233-2.516-.824-2.782-6.3-4.007-13.79-1.998-20.503 1.601-3.329 2.515-4.146 21.158-15.226 3.37-2.051 6.737-4.108 10.118-6.14 1.544-.928 3.125-1.993 4.772-2.749 2.608-.948 4.239 2.346 5.389 4.139m-32.983 6.586C-3.581 18.556-7.71 53.83 13.205 72.303c18.689 16.508 53.664 25.876 58.231 8.072 16.076 1.395 21.936-22.226 16.699-44.319C84.676 21.359 75.888 6.271 60.878 1.22c-13.48-4.657-28.886 2.128-36.701 13.614"></path></g><!----></svg>